<svg width="18" height="16" viewBox="0 0 18 16" fill="none" xmlns="http://www.w3.org/2000/svg">
<path fill-rule="evenodd" clip-rule="evenodd" d="M0 8C0 7.69581 0.118534 7.40408 0.329523 7.18899C0.540514 6.97389 0.826677 6.85306 1.12506 6.85306L14.1608 6.85306L9.33051 1.92884C9.13178 1.71142 9.02359 1.42385 9.02873 1.12671C9.03388 0.829574 9.15195 0.546072 9.35808 0.335932C9.56421 0.125792 9.84231 0.00542132 10.1338 0.000178689C10.4252 -0.00506394 10.7073 0.105231 10.9206 0.307827L17.671 7.18949C17.8817 7.40454 18 7.69606 18 8C18 8.30394 17.8817 8.59545 17.671 8.81051L10.9206 15.6922C10.7073 15.8948 10.4252 16.0051 10.1338 15.9998C9.84231 15.9946 9.56421 15.8742 9.35808 15.6641C9.15195 15.4539 9.03388 15.1704 9.02873 14.8733C9.02359 14.5761 9.13178 14.2886 9.33051 14.0712L14.1608 9.14694L1.12506 9.14694C0.826677 9.14694 0.540514 9.0261 0.329523 8.81101C0.118534 8.59592 0 8.30419 0 8Z" fill="black"/>
</svg>
